<svg width="101" height="35" viewBox="0 0 101 35" fill="none" xmlns="http://www.w3.org/2000/svg">
<path d="M55.9542 17.8006V19.0551H43.688V7.18378H55.6522V8.46151H45.0354V17.8006H55.9542ZM51.0059 13.9674C52.2836 14.8269 53.8866 16.0117 54.6997 16.8016L54.0957 17.4521C53.9563 17.5915 53.7472 17.5915 53.5846 17.4753C52.8412 16.7552 51.6332 15.8027 50.5645 15.036C50.007 15.9653 48.9151 16.8481 46.9172 17.545C46.7081 17.6147 46.4758 17.545 46.3364 17.3824C46.1505 17.1269 45.9182 16.8481 45.7091 16.6622C48.2878 15.9653 49.2635 14.9896 49.612 13.9906H45.6627V12.829H49.7979V12.7361V11.0634H47.7767C47.4515 11.4816 47.103 11.8533 46.7545 12.1553C46.499 11.9462 45.9647 11.621 45.6394 11.4816C46.4525 10.8544 47.1495 9.94833 47.5909 8.94937C47.6838 8.76352 47.8697 8.67059 48.0787 8.71706L48.9615 8.94937C48.8221 9.27461 48.6595 9.59985 48.4969 9.92509H54.63V11.0634H51.0988V12.7361V12.7826H55.2573V13.9441H51.0059V13.9674Z" fill="black"/>
<path d="M62.5284 16.0814C61.0648 16.6855 59.5083 17.3127 58.3003 17.7773L57.8589 16.4299C58.3467 16.2673 58.9275 16.0814 59.578 15.8491V11.1331H58.068V9.87862H59.5548V6.64944H60.8557V9.87862H62.1567V11.1331H60.8557V15.3613L62.2496 14.8502L62.5284 16.0814ZM69.2191 18.3349C69.3817 18.3349 69.5443 18.3117 69.6373 18.2884C69.7302 18.242 69.7999 18.149 69.8463 17.9864C69.8928 17.8006 69.8928 17.4056 69.916 16.8481C70.1483 17.0572 70.613 17.2895 70.9615 17.4056C70.9382 17.9632 70.8685 18.544 70.7756 18.7531C70.6362 18.9854 70.4504 19.148 70.218 19.2409C70.009 19.3338 69.614 19.3803 69.3585 19.3803H68.406C68.0575 19.3803 67.6393 19.2874 67.3838 19.0783C67.1283 18.8692 67.0353 18.6137 67.0353 17.8238V15.8724H65.8738C65.6182 17.847 64.898 18.9621 62.2729 19.6126C62.1799 19.2874 61.8547 18.8228 61.5992 18.5672C63.8758 18.1258 64.4334 17.3592 64.6193 15.8724H63.2718V11.7371H69.8696V15.8724H68.2666V17.8935C68.2666 18.1026 68.2898 18.2187 68.3595 18.2652C68.4292 18.3117 68.5221 18.3349 68.6848 18.3349H69.2191ZM70.5665 11.1331H62.6213V10.018H64.5031C64.4102 9.66954 64.2708 9.20491 64.1082 8.83321L65.1768 8.60089C65.3859 9.01906 65.5717 9.57661 65.6647 9.94832L65.3859 10.018H67.407C67.5697 9.57661 67.802 9.04229 67.9181 8.62412L69.1262 8.85644C68.9171 9.25137 68.7545 9.64631 68.5686 10.018H70.5433V11.1331H70.5665ZM70.1948 8.50796H63.0395V7.41608H65.9667C65.8738 7.13731 65.7576 6.8353 65.6414 6.60298L66.8727 6.37067C67.0353 6.69591 67.2212 7.09084 67.3373 7.41608H70.1948V8.50796ZM64.4566 13.3866H68.5686V12.6199H64.4566V13.3866ZM64.4566 15.0128H68.5686V14.2229H64.4566V15.0128Z" fill="black"/>
<path d="M85.8764 17.1966V18.5208H73.0991V17.1966H78.6747V9.36761H73.8658V7.99695H85.133V9.36761H80.1615V17.1966H85.8764Z" fill="black"/>
<path d="M96.1675 12.0624V12.1785H100.28C100.28 12.1785 100.256 12.5735 100.256 12.7593C100.094 16.8248 99.931 18.3581 99.4664 18.8924C99.1876 19.2641 98.8624 19.3803 98.3745 19.4268C97.9564 19.4732 97.1897 19.4732 96.3999 19.45C96.3766 19.0551 96.214 18.4975 95.9817 18.1258C96.7483 18.1955 97.4917 18.2187 97.7705 18.2187C98.0261 18.2187 98.1887 18.1723 98.3281 18.0329C98.6068 17.7309 98.7695 16.4996 98.9089 13.433H96.1211C95.912 15.5239 95.1221 17.847 92.4505 19.5894C92.2182 19.2874 91.7768 18.9157 91.4515 18.6834C94.4716 16.6855 94.8433 14.0371 94.8433 12.0392V10.1806H92.6363V11.2028H91.0798V15.036C91.6374 14.8269 92.2182 14.6178 92.7525 14.432L92.9848 15.6633C91.3122 16.3137 89.5233 17.0107 88.1294 17.5218L87.8042 16.1511C88.3385 15.9885 89.0122 15.733 89.7556 15.4774V11.2028H88.0365V9.94832H89.7556V6.69591H91.0334V9.94832H92.5434V8.9029H100.93V10.1806H96.1675V12.0624ZM96.5392 8.83321C96.4463 8.27565 96.1443 7.34639 95.8888 6.64944L97.1433 6.37067C97.3756 7.04438 97.7241 7.92718 97.8402 8.4615L96.5392 8.83321Z" fill="black"/>
<path d="M48.8446 27.2788L48.1244 25.6294H45.3367L44.6165 27.2788H43.7104L46.2891 21.5871H47.2416L49.8203 27.2788H48.8446ZM47.8224 24.9092L46.7305 22.4002L45.6619 24.9092H47.8224Z" fill="black"/>
<path d="M50.2622 22.4235V21.5639H51.0521V22.4467H50.2622V22.4235ZM50.2622 27.2789V23.1204H51.0521V27.2789H50.2622Z" fill="black"/>
<path d="M51.9116 25.6063V24.9326H55.9307V25.6063H51.9116Z" fill="black"/>
<path d="M60.3682 26.3264L62.6448 21.6104H63.8064V27.3021H62.9701V22.5861L60.7399 27.3021H59.9964L57.7895 22.6791V27.3021H56.9531V21.6104H58.1379L60.3682 26.3264Z" fill="black"/>
<path d="M69.4049 25.4437H65.5717C65.5949 25.8619 65.7808 26.1871 66.106 26.4194C66.408 26.6518 66.7333 26.7679 67.105 26.7679C67.7787 26.7679 68.2201 26.5124 68.4524 26.0245H69.2887C69.1029 26.4891 68.8009 26.8608 68.3827 27.1164C68.011 27.3255 67.5928 27.4416 67.1514 27.4416C66.3848 27.4416 65.7808 27.2325 65.3394 26.7912C64.9444 26.373 64.7354 25.8619 64.7354 25.2346C64.7354 24.6074 64.9444 24.0731 65.3394 23.6781C65.7808 23.2367 66.3848 23.0276 67.1514 23.0276C67.7787 23.0276 68.2898 23.2135 68.6847 23.562C69.1726 23.9801 69.4049 24.5842 69.4049 25.3973V25.4437ZM65.5949 24.8165H68.5685C68.4989 24.4448 68.3595 24.166 68.0807 23.9569C67.8251 23.7478 67.4999 23.6549 67.105 23.6549C66.7333 23.6549 66.3848 23.7478 66.1292 23.9569C65.8272 24.166 65.6646 24.468 65.5949 24.8165Z" fill="black"/>
<path d="M73.9124 27.2789V26.7445C73.773 26.9536 73.5407 27.1162 73.2387 27.2324C72.9366 27.3485 72.6346 27.4182 72.3094 27.4182C71.6589 27.4182 71.1246 27.2324 70.7064 26.8375C70.265 26.4425 70.0327 25.885 70.0327 25.2112C70.0327 24.5375 70.265 23.98 70.7064 23.585C71.1246 23.2133 71.6589 23.0043 72.3094 23.0043C72.6346 23.0043 72.9366 23.074 73.2387 23.1901C73.5174 23.3063 73.7498 23.4689 73.9124 23.7012V21.5639H74.7022V27.3021H73.9124V27.2789ZM70.8923 25.2345C70.8923 25.6526 71.0084 26.0244 71.2408 26.3031C71.5195 26.6051 71.9145 26.7678 72.4023 26.7678C72.9134 26.7678 73.3084 26.6051 73.5871 26.3031C73.8194 26.0244 73.9588 25.6759 73.9588 25.2345C73.9588 24.7699 73.8195 24.3981 73.5407 24.1194C73.2619 23.8406 72.8902 23.7012 72.4256 23.7012C71.9609 23.7012 71.5892 23.8406 71.3104 24.1194C71.0317 24.3749 70.8923 24.7466 70.8923 25.2345Z" fill="black"/>
<path d="M75.3057 25.4204H76.142C76.142 25.8851 76.3511 26.2336 76.746 26.4426C77.048 26.6285 77.4662 26.6982 77.9773 26.6982C78.4419 26.6982 78.8136 26.6053 79.0924 26.4426C79.3712 26.28 79.5106 26.0477 79.5106 25.7457C79.5106 25.3043 79.1621 25.0255 78.4419 24.9094L77.1642 24.7003C76.0491 24.5144 75.4683 24.0266 75.4683 23.2135C75.4683 22.6791 75.6774 22.261 76.0723 21.959C76.4672 21.6569 77.0248 21.4943 77.745 21.4943C78.3955 21.4943 78.9298 21.6105 79.3479 21.866C79.859 22.168 80.1146 22.6327 80.161 23.2832H79.3247C79.2086 22.5862 78.651 22.2377 77.6288 22.2377C77.2803 22.2377 76.9783 22.3074 76.746 22.4468C76.4672 22.6094 76.3278 22.865 76.3278 23.167C76.3278 23.5619 76.6299 23.8175 77.2571 23.9104L78.651 24.1427C79.7893 24.3286 80.3701 24.8164 80.3701 25.6063C80.3701 26.28 80.1146 26.7679 79.5803 27.0699C79.1621 27.3254 78.6045 27.4648 77.9308 27.4648C77.1874 27.4648 76.5834 27.3254 76.142 27.0467C75.5844 26.6749 75.3057 26.1406 75.3057 25.4204Z" fill="black"/>
<path d="M84.389 25.7687H85.2253C85.0627 26.3727 84.8071 26.8141 84.4122 27.0697C84.0637 27.302 83.6223 27.4414 83.0415 27.4414C82.2749 27.4414 81.6941 27.2091 81.2992 26.7444C80.9507 26.3495 80.7881 25.8616 80.7881 25.2344C80.7881 24.5839 80.9739 24.0496 81.3456 23.6546C81.7638 23.2132 82.3214 23.0042 83.0415 23.0042C83.6223 23.0042 84.1102 23.1203 84.4819 23.3759C84.8768 23.6546 85.1324 24.0263 85.2021 24.5374H84.3657C84.2728 23.9566 83.8546 23.6779 83.1112 23.6779C82.6234 23.6779 82.2517 23.8173 81.9961 24.1193C81.7638 24.398 81.6477 24.7697 81.6477 25.2344C81.6477 25.699 81.7638 26.0707 81.9961 26.3495C82.2517 26.6515 82.6234 26.7909 83.1112 26.7909C83.7849 26.7677 84.2263 26.4192 84.389 25.7687Z" fill="black"/>
<path d="M89.2909 26.6285H89.1979C88.9191 27.0699 88.3384 27.3719 87.6879 27.3719C86.7586 27.3719 85.9688 26.7447 85.9688 25.978C85.9688 25.2114 86.7586 24.5841 87.6879 24.5841C88.3384 24.5841 88.8959 24.8862 89.1979 25.3276H89.2676V24.77C89.2676 24.1195 88.4778 23.9801 88.0596 23.9801C87.502 23.9801 86.9212 24.1427 86.4101 24.3751C86.3637 24.3983 86.3405 24.3983 86.3172 24.3286L86.1778 23.7943C86.1546 23.7478 86.1778 23.7013 86.2243 23.6781C86.7586 23.4226 87.502 23.2599 88.0596 23.2599C88.7333 23.2599 90.0575 23.469 90.0575 24.6074V27.2325C90.0575 27.279 90.0343 27.3022 89.9878 27.3022H89.3606C89.3141 27.3022 89.2909 27.279 89.2909 27.2325V26.6285ZM88.0596 26.5588C88.7798 26.5588 89.2676 26.3033 89.2676 25.9548C89.2676 25.6063 88.7798 25.3508 88.0596 25.3508C87.3162 25.3508 86.7819 25.6063 86.7819 25.9548C86.7819 26.3265 87.3162 26.5588 88.0596 26.5588Z" fill="black"/>
<path d="M91.0327 28.8818V23.0972H91.8226V23.678C91.962 23.4689 92.1943 23.3063 92.4963 23.1669C92.7751 23.0507 93.0771 22.981 93.4023 22.981C94.0528 22.981 94.5871 23.1669 95.0053 23.5618C95.4467 23.98 95.679 24.5143 95.679 25.188C95.679 25.8617 95.4467 26.4193 95.0053 26.8142C94.5871 27.2092 94.0528 27.395 93.4023 27.395C93.0771 27.395 92.7751 27.3485 92.4963 27.2324C92.1943 27.1162 91.962 26.9304 91.8226 26.7213V28.8586H91.0327V28.8818ZM94.8659 25.2345C94.8659 24.8163 94.7498 24.4446 94.5174 24.1658C94.2387 23.8638 93.8437 23.7012 93.3559 23.7012C92.8448 23.7012 92.4498 23.8638 92.1711 24.1658C91.9387 24.4446 91.7994 24.7931 91.7994 25.2345C91.7994 25.6991 91.9387 26.0708 92.2175 26.3496C92.4963 26.6284 92.868 26.7678 93.3326 26.7678C93.7973 26.7678 94.169 26.6284 94.4477 26.3496C94.7265 26.0708 94.8659 25.6991 94.8659 25.2345Z" fill="black"/>
<path d="M101 25.4437H97.1669C97.1901 25.8619 97.376 26.1871 97.7012 26.4194C98.0032 26.6518 98.3285 26.7679 98.7002 26.7679C99.3739 26.7679 99.8153 26.5124 100.048 26.0245H100.884C100.698 26.4891 100.396 26.8608 99.9779 27.1164C99.6062 27.3255 99.188 27.4416 98.7466 27.4416C97.98 27.4416 97.376 27.2325 96.9346 26.7912C96.5396 26.373 96.3306 25.8619 96.3306 25.2346C96.3306 24.6074 96.5396 24.0731 96.9346 23.6781C97.376 23.2367 97.98 23.0276 98.7466 23.0276C99.3739 23.0276 99.885 23.2135 100.28 23.562C100.768 23.9801 101 24.5842 101 25.3973V25.4437ZM97.1901 24.8165H100.164C100.094 24.4448 99.9547 24.166 99.6759 23.9569C99.4204 23.7478 99.0951 23.6549 98.7002 23.6549C98.3052 23.6549 97.98 23.7478 97.7245 23.9569C97.4224 24.166 97.2366 24.468 97.1901 24.8165Z" fill="black"/>
<path d="M18.8065 0.00534882C16.7621 0.0982748 15.1127 1.74771 15.0198 3.79208C14.9268 5.6506 16.1116 7.23035 17.7611 7.7879C17.9005 7.83437 18.0631 7.81113 18.2025 7.74144C18.5974 7.50912 18.8762 7.09096 18.8762 6.57986C18.8762 6.46371 18.853 6.34755 18.8297 6.23139C18.4348 5.06982 17.4126 4.21025 16.1813 4.0244C16.1581 4.0244 16.1581 4.00117 16.1581 3.97794C16.1581 3.9547 16.1813 3.93147 16.1813 3.93147C17.6217 3.72239 18.76 2.58405 18.9691 1.14369C18.9691 1.12046 18.9923 1.12046 19.0156 1.12046C19.0388 1.12046 19.062 1.14369 19.062 1.14369C19.2711 2.58405 20.4095 3.72239 21.8498 3.93147C21.873 3.93147 21.873 3.9547 21.873 3.97794C21.873 4.00117 21.8498 4.0244 21.8498 4.0244C20.6185 4.21025 19.5964 5.06982 19.2014 6.23139C19.1782 6.34755 19.155 6.46371 19.155 6.57986C19.155 7.06773 19.4337 7.50912 19.8287 7.74144C19.9681 7.81113 20.1307 7.83437 20.2701 7.7879C21.8266 7.25358 22.9882 5.76676 22.9882 3.97794C22.9882 1.72448 21.1064 -0.110809 18.8065 0.00534882Z" fill="#0041D1"/>
<path d="M31.6069 6.34766C27.0768 6.34766 22.779 7.39307 19.5265 9.29806C19.4801 9.32129 19.4104 9.36775 19.3639 9.39098C19.1781 9.50714 18.9225 9.50714 18.7367 9.39098C18.6902 9.36775 18.6205 9.32129 18.5741 9.29806C15.3216 7.39307 11.0238 6.34766 6.49368 6.34766C4.30991 6.34766 2.21908 6.57997 0.197938 7.0446C0.0585492 7.06783 -0.0343766 7.23045 0.0120864 7.36984C0.197938 8.06679 0.476716 8.76373 0.84842 9.41421C1.08074 9.80915 1.52213 10.0182 1.96353 9.92531C3.42712 9.64653 4.93716 9.50714 6.49368 9.50714C9.9784 9.50714 13.2773 10.1809 15.9024 11.4586C16.158 11.5747 16.2277 11.9 16.0418 12.1091C14.7409 13.6423 14.0671 15.3847 14.0671 17.22C14.0671 19.1018 14.8106 20.9138 16.2044 22.5168C16.2509 22.5632 16.3438 22.5865 16.3903 22.5168C16.4832 22.4239 16.5761 22.3309 16.6691 22.2612L16.7388 22.2148L18.2256 21.0997C18.365 20.9835 18.5276 20.8441 18.6902 20.7047C18.7367 20.6583 18.7367 20.5653 18.6902 20.5189C17.9236 19.6593 17.2499 18.5442 17.2499 17.2432C17.2499 16.0352 17.8074 14.8504 18.8528 13.7817C18.969 13.6656 19.1316 13.6656 19.2478 13.7817C20.2932 14.8504 20.8507 16.0584 20.8507 17.2432C20.8507 19.0785 19.5498 20.5189 18.4579 21.4249L16.9711 22.54L16.9246 22.5865C15.252 24.0733 14.3227 25.9783 14.3227 27.9529C14.3227 30.3458 16.46 33.1103 18.8296 34.6901C18.9458 34.783 19.1316 34.783 19.2478 34.6901C21.6174 33.1103 23.7547 30.3226 23.7547 27.9529C23.7547 26.3964 23.1739 24.8632 22.1052 23.5622C21.9426 23.3763 21.6871 23.3531 21.5012 23.5157C21.2457 23.748 20.9901 24.0036 20.6881 24.2127L20.6417 24.2591L19.6427 25.0258C19.4801 25.1419 19.4569 25.3743 19.5962 25.5369C20.1073 26.1409 20.572 26.954 20.572 27.9529C20.572 28.9519 20.1073 29.9276 19.2245 30.764C19.1316 30.8569 18.9458 30.8569 18.8528 30.764C17.9933 29.9276 17.5054 28.9519 17.5054 27.9529C17.5054 26.6288 18.2953 25.6298 18.9922 25.0026L20.3861 23.9339L20.4326 23.9107C22.779 22.0057 24.0102 19.7058 24.0102 17.2432C24.0102 15.3615 23.2668 13.5494 21.8962 11.9697C21.78 11.8303 21.8265 11.6212 21.9891 11.5515C24.6375 10.2273 28.006 9.50714 31.5837 9.50714C33.1402 9.50714 34.6735 9.64653 36.1138 9.92531C36.5552 10.0182 36.9966 9.80915 37.229 9.41421C37.6007 8.76373 37.8794 8.06679 38.0653 7.36984C38.1117 7.23045 38.0188 7.06783 37.8794 7.0446C35.8815 6.57997 33.7675 6.34766 31.6069 6.34766Z" fill="#0041D1"/>
<path d="M3.21856 12.3411C5.14677 14.037 7.7487 15.4309 10.792 16.3137C11.8374 16.6157 12.9758 16.0813 13.3707 15.0359C13.5566 14.5481 13.7889 14.0834 14.0677 13.6188C14.2303 13.34 14.0909 12.9683 13.7889 12.8522C11.6284 12.0855 9.09613 11.6674 6.4942 11.6674C5.42555 11.6674 4.38013 11.7371 3.35795 11.8764C3.14886 11.8997 3.05594 12.1785 3.21856 12.3411Z" fill="#0041D1"/>
<path d="M31.6069 11.6674C29.005 11.6674 26.4727 12.0855 24.3122 12.8522C23.987 12.9683 23.8476 13.34 24.0334 13.6188C24.3122 14.0834 24.5445 14.5481 24.7304 15.0359C25.1253 16.0581 26.2404 16.6157 27.3091 16.3137C30.3524 15.4076 32.9543 14.037 34.8825 12.3411C35.0452 12.1785 34.9755 11.8997 34.7432 11.8764C33.721 11.7371 32.6756 11.6674 31.6069 11.6674Z" fill="#0041D1"/>
</svg>
