<svg width="11" height="22" viewBox="0 0 11 22" fill="none" xmlns="http://www.w3.org/2000/svg">
<path d="M11 18.0272V21.0257C10.6667 21.2451 10.2963 21.4279 9.88889 21.5742C9.48148 21.6839 9.11111 21.7936 8.74074 21.8667C8.33333 21.9399 7.88889 21.9764 7.48148 21.9764C6.81482 21.9764 6.22222 21.9033 5.7037 21.757C5.18518 21.6108 4.74074 21.4279 4.4074 21.2085C4.03703 20.9891 3.74074 20.7332 3.48148 20.4406C3.25926 20.1481 3.03704 19.8556 2.88889 19.5265C2.51852 18.8317 2.33334 18.0272 2.33334 17.1131V7.53268H0V5.0096C0.296296 4.97303 0.555562 4.8999 0.851858 4.82677C1.14815 4.75364 1.44445 4.60737 1.77778 4.38797C2.33334 4.05887 2.74075 3.65664 3.07408 3.18128C3.40741 2.70592 3.62963 2.26712 3.81482 1.82832C4 1.38952 4.11111 0.987295 4.14815 0.658197C4.18519 0.329099 4.22222 0.109699 4.22222 0H6.66666C6.7037 0.767895 6.7037 1.53579 6.7037 2.30369C6.7037 3.07158 6.7037 3.83948 6.74074 4.60737H10.8519V7.53268H6.77778C6.85185 12.8348 6.85185 15.9795 6.85185 16.8937C6.85185 17.0034 6.88889 17.1862 6.92593 17.4056C6.96296 17.625 7.07407 17.8444 7.2963 18.0638C7.51852 18.2832 7.81481 18.4295 8.14814 18.466C8.51851 18.5026 8.85184 18.5026 9.22221 18.466C9.59258 18.4295 9.92592 18.3563 10.2593 18.2466C10.5556 18.1735 10.8148 18.1004 11 18.0272Z" fill="url(#paint0_linear_1_22)"/>
<defs>
<linearGradient id="paint0_linear_1_22" x1="0.457947" y1="17.6162" x2="8.50444" y2="-0.96125" gradientUnits="userSpaceOnUse">
<stop stop-color="#5481F9"/>
<stop offset="0.5" stop-color="#57A9EB"/>
</linearGradient>
</defs>
</svg>
