<svg width="18" height="17" viewBox="0 0 18 17" fill="none" xmlns="http://www.w3.org/2000/svg">
<path d="M0.906025 16.914C1.43315 16.914 1.84732 16.505 1.84732 15.9846V8.73578C1.84732 7.32318 2.48741 5.94776 3.61696 4.94408C4.85948 3.86605 6.51616 3.38279 8.32345 3.56866C8.51171 3.60583 9.34006 3.68018 10.6579 3.86605C10.8461 3.90322 11.5992 4.38648 11.8251 4.75821C12.3899 5.7619 13.4818 6.46819 14.7243 6.46819C16.5316 6.46819 18 5.01842 18 3.2341C18 1.44977 16.5316 0 14.7243 0C13.5571 0 12.5405 0.594776 11.938 1.52411C11.938 1.48694 11.938 1.48694 11.9757 1.48694C11.7874 1.74716 11.2603 2.08172 10.8461 2.04454C9.67892 1.89585 8.81293 1.78433 8.58702 1.78433C6.2526 1.52411 4.03113 2.15606 2.4121 3.60583C0.868373 4.94408 0.00237835 6.83993 0.00237835 8.81012V16.059C-0.0352736 16.505 0.378898 16.914 0.906025 16.914Z" fill="#5DB8E8"/>
</svg>
