<svg width="20" height="24" viewBox="0 0 20 24" fill="none" xmlns="http://www.w3.org/2000/svg">
<path d="M0 23.5641V0H8.25046C9.87109 0 11.3812 0.290916 12.7808 0.872747C14.2173 1.45458 15.4696 2.25459 16.5378 3.2728C17.6059 4.32737 18.453 5.56376 19.0792 6.98197C19.7053 8.43655 20 10.0002 20 11.7457C20 13.4912 19.6685 15.0912 19.0424 16.5094C18.4162 17.964 17.5691 19.2004 16.4641 20.2186C15.3959 21.2732 14.1436 22.0732 12.7072 22.655C11.2707 23.2369 9.76059 23.5278 8.1768 23.5278H0V23.5641ZM15.5433 11.7457C15.5433 10.6548 15.3591 9.63657 15.0276 8.65473C14.6961 7.67289 14.1805 6.83651 13.5543 6.10922C12.9282 5.38193 12.1547 4.8001 11.1971 4.36373C10.2762 3.92736 9.24494 3.70917 8.10313 3.70917H4.23573V19.7822H8.10313C9.2081 19.7822 10.2026 19.5641 11.1234 19.0913C12.0442 18.6549 12.8177 18.0368 13.4807 17.2731C14.1437 16.5094 14.6593 15.6367 14.9908 14.6912C15.3591 13.7458 15.5433 12.7639 15.5433 11.7457Z" fill="url(#paint0_linear_1_19)"/>
<defs>
<linearGradient id="paint0_linear_1_19" x1="0.832632" y1="18.8889" x2="6.50521" y2="-3.31873" gradientUnits="userSpaceOnUse">
<stop stop-color="#5481F9"/>
<stop offset="0.5" stop-color="#57A9EB"/>
</linearGradient>
</defs>
</svg>
