<svg width="18" height="18" viewBox="0 0 18 18" fill="none" xmlns="http://www.w3.org/2000/svg">
<path d="M8.7782 0C10.2037 0 11.4417 0.222223 12.5296 0.703704C13.6175 1.18519 14.5178 1.81481 15.2681 2.62963C16.0183 3.44444 16.581 4.40741 16.9937 5.48148C17.3688 6.59259 17.5939 7.74074 17.5939 9C17.5939 10.2963 17.3688 11.4815 16.9562 12.5926C16.506 13.7037 15.9058 14.6667 15.1555 15.4444C14.3677 16.2593 13.4674 16.8889 12.3795 17.3333C11.2916 17.7778 10.1287 18 8.81572 18C7.46522 18 6.26478 17.7778 5.17688 17.3333C4.08899 16.8889 3.18866 16.2593 2.40087 15.4444C1.6506 14.6296 1.05038 13.6667 0.637726 12.5926C0.225075 11.4815 0 10.2963 0 9C0 7.74074 0.225075 6.59259 0.637726 5.48148C1.05038 4.37037 1.6506 3.44444 2.43839 2.62963C3.18866 1.81481 4.1265 1.14815 5.2144 0.703704C6.3023 0.222223 7.50273 0 8.7782 0ZM8.7782 14.5185C9.49096 14.5185 10.1662 14.3704 10.7289 14.0741C11.3291 13.7778 11.8168 13.3704 12.1919 12.8519C12.6046 12.3333 12.9047 11.7407 13.1298 11.037C13.3549 10.3333 13.4674 9.59259 13.4674 8.77778C13.4674 8 13.3549 7.25926 13.1673 6.55555C12.9797 5.85185 12.6796 5.25926 12.267 4.74074C11.8918 4.22222 11.3666 3.81482 10.8039 3.51852C10.2037 3.22222 9.52847 3.07407 8.74068 3.07407C7.91538 3.07407 7.20262 3.22222 6.63992 3.51852C6.0397 3.81482 5.55202 4.22222 5.17688 4.74074C4.80175 5.25926 4.50164 5.88889 4.31407 6.55555C4.12651 7.25926 4.05147 8 4.05147 8.77778C4.05147 9.59259 4.16401 10.3704 4.35158 11.0741C4.57666 11.7778 4.87678 12.3704 5.25192 12.8889C5.62705 13.4074 6.11473 13.8148 6.71495 14.0741C7.35268 14.3704 8.02793 14.5185 8.7782 14.5185Z" fill="url(#paint0_linear_1_23)"/>
<defs>
<linearGradient id="paint0_linear_1_23" x1="0.732462" y1="14.4287" x2="4.55263" y2="-2.79459" gradientUnits="userSpaceOnUse">
<stop stop-color="#5481F9"/>
<stop offset="0.5" stop-color="#57A9EB"/>
</linearGradient>
</defs>
</svg>
