<svg width="17" height="18" viewBox="0 0 17 18" fill="none" xmlns="http://www.w3.org/2000/svg">
<path d="M8.99355 14.3296C10.2366 14.3296 11.2237 13.9686 11.9914 13.1745C12.7591 12.4166 13.271 11.4781 13.5269 10.3231L17 10.684C16.8172 11.6586 16.5247 12.5609 16.086 13.3911C15.6473 14.2213 15.0989 14.9432 14.4043 15.5568C13.7097 16.1704 12.8688 16.6396 11.9183 17.0006C10.9677 17.3615 9.87097 17.5059 8.62796 17.5059C7.34839 17.5059 6.1785 17.2893 5.11828 16.8562C4.05807 16.4231 3.14409 15.8094 2.41291 15.0154C1.64516 14.2213 1.06021 13.3189 0.621499 12.2361C0.182789 11.1532 0 9.99821 0 8.771C0 7.54378 0.219348 6.42485 0.621499 5.34201C1.06021 4.25917 1.64516 3.32071 2.41291 2.56272C3.18065 1.76864 4.09463 1.15503 5.15484 0.685798C6.21506 0.216568 7.34839 0 8.62796 0C9.79786 0 10.8581 0.180473 11.8086 0.541419C12.7591 0.902366 13.6 1.40769 14.2946 2.05739C15.0258 2.7071 15.6108 3.46508 16.0495 4.33136C16.5247 5.19763 16.8172 6.13609 16.9634 7.18283L13.5269 7.50768C13.3441 6.20828 12.8323 5.19763 12.0645 4.40355C11.2968 3.60946 10.2366 3.21242 8.95699 3.21242C8.15269 3.21242 7.45806 3.3568 6.87312 3.64556C6.28817 3.93432 5.77634 4.29526 5.37419 4.80059C4.97204 5.30591 4.67956 5.88343 4.46021 6.56922C4.27741 7.25502 4.16774 7.97691 4.16774 8.771C4.16774 9.56508 4.27742 10.287 4.49677 10.9728C4.71613 11.6586 5.04516 12.2361 5.44731 12.7414C5.84946 13.2467 6.36129 13.6438 6.94624 13.9325C7.56774 14.1852 8.26237 14.3296 8.99355 14.3296Z" fill="url(#paint0_linear_1_21)"/>
<defs>
<linearGradient id="paint0_linear_1_21" x1="0.707737" y1="14.0326" x2="4.445" y2="-2.70759" gradientUnits="userSpaceOnUse">
<stop stop-color="#5481F9"/>
<stop offset="0.5" stop-color="#57A9EB"/>
</linearGradient>
</defs>
</svg>
