<svg width="11" height="18" viewBox="0 0 11 18" fill="none" xmlns="http://www.w3.org/2000/svg">
<path d="M11 3.34438C10.8907 3.30842 10.6358 3.30842 10.3079 3.27245C9.94371 3.23649 9.54304 3.27245 9.06953 3.34438C8.59603 3.4163 8.08609 3.56014 7.53973 3.77591C6.99337 3.99167 6.44702 4.31533 5.93708 4.7109C5.46357 5.10647 5.09934 5.538 4.88079 5.93357C4.62583 6.3651 4.44371 6.72471 4.33444 7.0124V17.2613H0V0.215766H4.18874V3.63206C4.29801 3.38034 4.48013 2.98477 4.80794 2.44535C5.13576 1.90594 5.60927 1.43844 6.22848 0.970948C6.73841 0.611338 7.24834 0.35961 7.75827 0.215766C8.26821 0.0719215 8.74172 0 9.1788 0C9.61589 0 9.98013 2.73289e-07 10.3079 0.0719224C10.6358 0.143844 10.8543 0.179805 10.9636 0.179805V3.34438H11Z" fill="url(#paint0_linear_1_24)"/>
<defs>
<linearGradient id="paint0_linear_1_24" x1="0.457947" y1="13.8366" x2="5.74178" y2="-1.69487" gradientUnits="userSpaceOnUse">
<stop stop-color="#5481F9"/>
<stop offset="0.5" stop-color="#57A9EB"/>
</linearGradient>
</defs>
</svg>
