<svg width="14" height="18" viewBox="0 0 14 18" fill="none" xmlns="http://www.w3.org/2000/svg">
<path d="M2.52101 5.01403C3.39788 5.01403 4.16515 4.58116 4.60358 3.93186C5.07856 4.00401 5.44392 4.04008 5.77275 4.07615C9.6456 4.54509 11.3993 7.21443 11.3993 9.4509V17.0982C11.3993 17.6032 11.8012 18 12.3128 18C12.8243 18 13.2262 17.6032 13.2262 17.0982V9.4509C13.2262 7.75551 12.532 6.06012 11.2897 4.76152C9.97443 3.39078 8.11107 2.48898 5.95543 2.23647C5.84582 2.23647 5.77275 2.2004 5.66314 2.2004C5.51699 2.2004 5.37085 2.16433 5.18816 2.12826C5.15163 2.12826 5.11509 2.12826 5.11509 2.12826C5.2247 2.12826 5.33431 2.16433 5.40738 2.16433C5.26124 2.12826 4.93241 1.83968 4.89588 1.69539C4.85934 1.62325 4.85934 1.5511 4.8228 1.51503C4.4209 0.613227 3.54403 0 2.52101 0C1.13263 0 0 1.11824 0 2.48898C0 3.89579 1.13263 5.01403 2.52101 5.01403Z" fill="#5DB8E8"/>
</svg>
