<svg width="40" height="27" viewBox="0 0 40 27" fill="none" xmlns="http://www.w3.org/2000/svg">
<path d="M38.0633 3.34614C37.0205 3.34614 36.1639 4.19186 36.1639 5.22144V15.2966C36.1639 16.1056 35.5307 16.9881 34.5251 17.6499C34.4879 17.6867 34.4507 17.7235 34.4134 17.7603C33.4078 18.4221 32.6257 19.5253 32.6257 21.1799V23.7539C32.6257 24.3422 31.9181 24.7099 31.2849 24.4525L23.6499 20.5181C23.6499 20.5181 23.7989 20.5916 23.2775 20.3342C22.7561 20.0768 21.6015 19.9297 20.9683 20.0033C16.4618 20.5181 11.8436 21.0696 9.68343 21.327C8.08194 21.5109 6.40596 20.9961 5.17691 19.893C4.28305 19.1208 3.79888 18.1647 3.79888 17.2822V1.87531C3.79888 0.845727 2.94227 0 1.89944 0C0.856611 0 0 0.845727 0 1.87531V17.2455C0 19.1943 0.968343 21.1799 2.68156 22.6508C4.43203 24.1951 6.7784 25.0409 9.08752 25.0409C9.45996 25.0409 9.79516 25.0041 10.1676 24.9673C12.1788 24.7467 18.2495 24.0481 20.5214 23.7539C21.6015 23.6436 22.4209 23.8274 22.905 24.0113C23.3892 24.1951 29.6834 26.5117 29.6834 26.5117C31.8436 27.2103 34.5624 26.4749 34.5624 24.1951C34.5624 24.1951 34.5624 22.7243 34.5624 22.3934C34.5624 22.0624 35.0466 21.5844 35.3073 21.4741C38.1378 20.1504 40 17.7603 40 15.2598V5.22144C39.9255 4.19186 39.1061 3.34614 38.0633 3.34614Z" fill="url(#paint0_linear_1_34)"/>
<defs>
<linearGradient id="paint0_linear_1_34" x1="9.57855" y1="26.833" x2="26.789" y2="-3.36002" gradientUnits="userSpaceOnUse">
<stop stop-color="#5481F9"/>
<stop offset="1" stop-color="#57A9EB"/>
</linearGradient>
</defs>
</svg>
