<svg width="54" height="40" viewBox="0 0 54 40" fill="none" xmlns="http://www.w3.org/2000/svg">
<path d="M44.0319 0C37.7209 0 31.7336 1.45638 27.2026 4.11023C27.1379 4.14259 27.0408 4.20732 26.976 4.23968C26.7171 4.4015 26.3611 4.4015 26.1022 4.23968C26.0375 4.20732 25.9404 4.14259 25.8757 4.11023C21.3447 1.45638 15.3574 0 9.04639 0C6.00418 0 3.09142 0.32364 0.275749 0.97092C0.0815654 1.00328 -0.0478903 1.22983 0.0168377 1.42402C0.27575 2.39494 0.664117 3.36586 1.18194 4.27205C1.50558 4.82223 2.1205 5.11351 2.73541 4.98406C4.77434 4.59569 6.878 4.4015 9.04639 4.4015C13.901 4.4015 18.4967 5.34006 22.1538 7.12008C22.5098 7.2819 22.6069 7.73499 22.348 8.02627C20.5356 10.1623 19.5971 12.5896 19.5971 15.1463C19.5971 17.7678 20.6327 20.2922 22.5745 22.5253C22.6393 22.5901 22.7687 22.6224 22.8335 22.5253C22.9629 22.3959 23.0924 22.2664 23.2218 22.1693L23.3189 22.1046L25.3902 20.5511C25.5844 20.3893 25.8109 20.1951 26.0375 20.0009C26.1022 19.9362 26.1022 19.8068 26.0375 19.742C24.9695 18.5446 24.0309 16.9911 24.0309 15.1787C24.0309 13.4958 24.8077 11.8452 26.264 10.3565C26.4259 10.1947 26.6524 10.1947 26.8142 10.3565C28.2706 11.8452 29.0473 13.5281 29.0473 15.1787C29.0473 17.7355 27.235 19.742 25.7138 21.0042L23.6426 22.5577L23.5778 22.6224C21.2476 24.6937 19.9531 27.3476 19.9531 30.0985C19.9531 33.432 22.9305 37.2833 26.2317 39.4841C26.3935 39.6135 26.6524 39.6135 26.8142 39.4841C30.1154 37.2833 33.0928 33.3996 33.0928 30.0985C33.0928 27.9301 32.2837 25.7941 30.795 23.9817C30.5684 23.7228 30.2124 23.6904 29.9535 23.917C29.5975 24.2406 29.2415 24.5966 28.8208 24.8879L28.7561 24.9526L27.3644 26.0206C27.1379 26.1825 27.1055 26.5061 27.2997 26.7327C28.0117 27.5741 28.659 28.7069 28.659 30.0985C28.659 31.4902 28.0117 32.8495 26.7819 34.0146C26.6524 34.144 26.3935 34.144 26.264 34.0146C25.0666 32.8495 24.3869 31.4902 24.3869 30.0985C24.3869 28.2538 25.4873 26.8621 26.4582 25.9883L28.4001 24.4995L28.4648 24.4672C31.7336 21.8133 33.4488 18.6093 33.4488 15.1787C33.4488 12.5572 32.4132 10.0328 30.5037 7.83209C30.3419 7.6379 30.4066 7.34663 30.6332 7.24953C34.3227 5.40479 39.0154 4.4015 43.9995 4.4015C46.1679 4.4015 48.3039 4.59569 50.3105 4.98406C50.9254 5.11351 51.5403 4.82223 51.864 4.27205C52.3818 3.36586 52.7701 2.39494 53.0291 1.42402C53.0938 1.22983 52.9643 1.00328 52.7701 0.97092C49.9868 0.32364 47.0417 0 44.0319 0Z" fill="#0041D1"/>
<path d="M4.48354 8.34999C7.16975 10.7126 10.7945 12.6544 15.0342 13.8842C16.4906 14.305 18.0764 13.5606 18.6266 12.1042C18.8855 11.4246 19.2092 10.7773 19.5975 10.13C19.8241 9.74164 19.6299 9.22382 19.2092 9.062C16.1993 7.99399 12.6716 7.41144 9.04686 7.41144C7.55812 7.41144 6.10174 7.50853 4.67772 7.70271C4.38645 7.73508 4.25699 8.12345 4.48354 8.34999Z" fill="#0041D1"/>
<path d="M44.0324 7.41138C40.4076 7.41138 36.8799 7.99393 33.8701 9.06194C33.417 9.22376 33.2228 9.74158 33.4817 10.13C33.8701 10.7772 34.1937 11.4245 34.4526 12.1042C35.0028 13.5282 36.5563 14.3049 38.045 13.8842C42.2847 12.622 45.9095 10.7125 48.5957 8.34993C48.8222 8.12338 48.7251 7.73502 48.4015 7.70265C46.9775 7.50847 45.5211 7.41138 44.0324 7.41138Z" fill="#0041D1"/>
</svg>
